<svg xmlns="http://www.w3.org/2000/svg" width="200" height="200" class="icon" viewBox="0 0 1024 1024"><path fill="#2c2c2c" d="M864.717 430.257c-37.013 55.632-81.935 93.951-130.482 112.261 8.427-13.83 16.59-28.544 24.368-44.1 48.852-97.742 80.12-220.87 90.653-354.075h101.31c-4.598 108.357-34.679 208.973-85.85 285.914m-286.219 191.56a28 28 0 0 0-3.791 1.915c-20.635 10.248-41.824 15.573-63.262 15.573-21.419 0-42.605-5.325-63.22-15.573a29 29 0 0 0-3.829-1.934c-22.897-12.111-45.023-30.366-65.981-54.393a30 30 0 0 0-3.715-4.347c-20.786-24.673-40.328-55.023-58.203-90.752-53.645-107.283-84.604-248.304-88.125-399.863h566.17c-3.546 151.54-34.523 292.599-88.145 399.863-17.875 35.729-37.436 66.098-58.203 90.752a29 29 0 0 0-3.734 4.367c-20.939 24.007-43.084 42.281-65.962 54.392m-18.083 173.78H462.48V691.242c16.035 4.218 32.38 6.418 48.966 6.418 16.573 0 32.916-2.18 48.97-6.418zm156.31 107.34v48.97H306.17v-48.97c.042-27.025 21.94-48.924 48.97-48.966h312.635c27.03.042 48.927 21.94 48.971 48.966zm-558.547-472.68c-51.195-76.94-81.27-177.557-85.85-285.914h101.305c10.538 133.206 41.788 256.333 90.658 354.074 7.778 15.557 15.921 30.27 24.369 44.12-48.548-18.329-93.47-56.648-130.482-112.28M980.376 85.988H852.534c.461-14.177.708-28.411.708-42.723 0-16.149-13.046-29.195-29.177-29.195H198.83c-16.111 0-29.158 13.066-29.158 29.177 0 14.33.246 28.564.707 42.723H42.518c-16.11 0-29.176 13.066-29.176 29.196 0 130.772 34.176 254.147 96.23 347.41 61.344 92.205 143.07 145.082 231.333 150.237 20.017 21.779 41.169 39.52 63.2 53.066v129.718H355.14c-59.253.071-107.27 48.087-107.345 107.34v48.97h-2.066c-15.832.404-28.45 13.351-28.45 29.186 0 15.832 12.618 28.783 28.45 29.187h531.437c16.12 0 29.186-13.066 29.186-29.187 0-16.12-13.066-29.186-29.186-29.186h-2.067v-48.97c-.075-59.253-48.092-107.269-107.344-107.34h-48.967V665.9c22.033-13.546 43.204-31.307 63.22-53.086 88.245-5.155 169.97-58.05 231.314-150.238 62.07-93.262 96.23-216.637 96.23-347.409 0-16.13-13.065-29.196-29.176-29.196zm0 0"/></svg>