<svg xmlns="http://www.w3.org/2000/svg" width="200" height="200" class="icon" viewBox="0 0 1024 1024"><path fill="#2c2c2c" d="M245.295 284.858h533.41a23.74 23.74 0 0 0 23.273-23.273 23.273 23.273 0 0 0-23.273-23.272h-533.41a23.273 23.273 0 0 0-23.273 23.272 23.74 23.74 0 0 0 23.273 23.273m533.41 204.335h-533.41a23.273 23.273 0 0 0-23.273 23.272 23.74 23.74 0 0 0 23.273 23.273h533.41a23.74 23.74 0 0 0 23.273-23.273 23.273 23.273 0 0 0-23.273-23.272m0 249.949h-533.41a23.273 23.273 0 1 0 0 46.545h533.41a23.273 23.273 0 1 0 0-46.545"/><path fill="#2c2c2c" d="M910.895 46.545h-797.79a23.273 23.273 0 0 0-23.272 23.273v889.018a23.273 23.273 0 0 0 23.272 23.273h797.79a23.273 23.273 0 0 0 23.272-23.273V67.491a23.273 23.273 0 0 0-23.272-20.946M136.378 93.091h751.244v842.473H136.378z"/></svg>