<svg xmlns="http://www.w3.org/2000/svg" width="200" height="200" class="icon" viewBox="0 0 1087 1024"><path fill="none" d="M19.2.037h1023.962V1024H19.2z"/><path fill="none" d="M19.2.037h1023.962V1024H19.2z"/><path fill="#2c2c2c" d="M507.31 24.612c-4.16-5.568-6.4 0-6.4 0l-121.02 996.7L510.701 1024zM291.957 815.88l-9.151-60.158L250.679 805l-64.958-1.92L227 846.598l-25.983 57.278 58.11-29.567 43.518 41.407-3.072-62.27 56.51-25.599-64.19-11.967zm112.956-370.74-65.661 20.735-30.527-58.238-19.84 83.005-70.397 36.543 55.806 12.8-12.927 84.156 54.206-70.269 64.19 19.84-22.912-65.278 48.062-63.358zM103.164 584.528l-36.606 49.406-47.359 7.872 28.991 31.679-26.75 54.398 47.358-37.503 33.534 32.639 2.304-52.35 41.343-33.599-43.519-2.048.64-50.494zM190.33 413.59l21.311-26.75-27.455 6.91-14.527-25.662-13.12 39.486-35.774 17.792 24.447 6.015-6.08 35.52 28.99-32.576 28.992 10.816zm125.18-140.347 13.823 7.936 6.144-19.903 21.311-16.768-16.767-2.944v-15.871l-17.6 20.863-23.679 3.968 8.32 15.68-14.464 20.799zM910.815 126.05s-101.884-65.28-294.837-19.457c0 0 246.519-23.55 308.724 165.178 0 0 42.879 191.545-103.932 338.676 0 0-106.236 118.076-177.017 147.13L549.484 3.942s-7.552-12.416-7.552 7.04v1002.011s114.748-40.19 125.436-59.71l-14.976-124.859s315.253-158.267 379.508-420.53c0 0 60.03-192.953-121.084-281.781z"/></svg>