<svg xmlns="http://www.w3.org/2000/svg" width="200" height="200" class="icon" viewBox="0 0 1024 1024"><path fill="#2c2c2c" d="m94.72 857.6 334.336 132.608 47.104-82.944-255.488-185.856zm892.416-363.008c-23.552-110.08-93.696-243.712-293.888-254.464h-3.584l-1.024 3.584a223.7 223.7 0 0 1-16.896 35.328l-4.608 7.68h9.216c145.92 3.072 235.52 76.288 265.728 218.112 23.552 110.592 2.048 224.768 1.024 229.376l-1.024 5.12 40.96 8.192 5.12.512 1.024-5.12c3.072-20.992 22.528-133.12-2.048-248.32M93.184 504.32c30.208-141.824 119.808-215.04 265.728-218.112h9.216l-4.608-7.68c-6.656-11.264-12.8-23.04-16.896-35.328l-1.536-3.584h-3.584C141.312 250.368 71.168 384 47.616 494.08c-25.088 118.272-3.584 235.52-1.024 248.832l1.024 5.12 40.96-8.192 5.12-1.024-1.024-5.12c-1.024-4.608-23.04-118.784.512-229.376M558.08 907.264l47.104 82.944L939.52 857.6 813.568 721.408zm-40.96-574.976c82.432 0 149.504-67.072 149.504-149.504S599.552 33.28 517.12 33.28s-149.504 67.072-149.504 149.504c0 82.944 67.072 149.504 149.504 149.504m23.04 122.88 25.6-72.704h-98.816l25.6 72.704-34.304 281.6 58.368 58.88 57.856-58.88zM318.976 615.936l53.248 168.448 64 46.592L364.032 601.6z"/></svg>