<svg xmlns="http://www.w3.org/2000/svg" width="200" height="200" class="icon" viewBox="0 0 1024 1024"><path fill="#2c2c2c" d="M716.8 422.175 616.196 522.78l-97.01-97.01 100.603-100.604c-62.877-25.151-138.33-12.576-188.631 39.523-50.302 50.301-64.674 125.754-39.523 188.631l-71.86 71.86c-26.947 26.947-26.947 70.063 0 97.01s70.064 26.948 97.011 0l71.86-71.86c62.877 25.152 138.33 12.576 188.631-39.522 50.302-52.098 64.674-125.754 39.523-188.632"/><path fill="#2c2c2c" d="M481.46 970.105c0-21.558-16.169-41.319-37.727-43.116C246.12 894.653 93.418 720.393 93.418 512 93.418 280.253 282.049 93.418 512 93.418c89.825 0 170.667 28.743 238.933 75.452 17.965 12.576 41.32 10.78 57.488-5.39l1.797-1.796c19.76-17.965 16.168-50.302-7.186-66.47C720.393 37.726 619.789 3.593 510.204 3.593 229.95 3.593 3.593 231.747 3.593 512c0 253.305 185.039 463.495 427.565 503.018 26.947 3.593 50.302-16.169 50.302-44.913m370.077-767.101c-16.169 16.168-17.965 41.319-3.593 59.284 43.116 57.487 71.86 127.55 80.842 203.003 1.796 23.355 21.558 39.523 44.912 39.523 26.948 0 46.709-23.354 44.913-50.302-10.78-91.62-44.913-176.056-98.807-246.119-16.169-21.558-48.506-25.15-68.267-5.39M921.6 600.028C885.67 767.102 749.137 898.246 580.267 926.99c-21.558 3.593-37.727 21.558-37.727 44.913 0 26.947 25.151 48.505 52.099 44.912 206.596-34.133 373.67-192.225 416.786-397.025 5.389-28.743-14.372-53.894-43.116-53.894h-1.797c-21.558-1.797-39.523 12.575-44.912 34.133"/></svg>